<svg xmlns="http://www.w3.org/2000/svg" xmlns:xlink="http://www.w3.org/1999/xlink" width="4126" zoomAndPan="magnify" viewBox="0 0 3094.5 748.499978" height="998" preserveAspectRatio="xMidYMid meet" version="1.0"><defs><g/><clipPath id="23e262efc5"><path d="M 71.136719 180 L 506 180 L 506 618.96875 L 71.136719 618.96875 Z M 71.136719 180" clip-rule="nonzero"/></clipPath><clipPath id="33bfa443ad"><path d="M 288.726562 492.800781 C 361.011719 451.179688 431.855469 410.34375 505.175781 368.117188 L 505.175781 493.507812 C 434.535156 534.394531 362.277344 576.191406 289.257812 618.46875 L 71.191406 493.152344 L 71.191406 242.421875 C 105.726562 222.511719 140.515625 202.472656 178.492188 180.5625 L 178.492188 429.039062 C 215.960938 450.699219 251.789062 471.417969 288.753906 492.773438" clip-rule="nonzero"/></clipPath><clipPath id="6b7393dba6"><path d="M 0.136719 0.359375 L 434.40625 0.359375 L 434.40625 438.546875 L 0.136719 438.546875 Z M 0.136719 0.359375" clip-rule="nonzero"/></clipPath><clipPath id="e43db19997"><path d="M 217.726562 312.800781 C 290.011719 271.179688 360.855469 230.34375 434.175781 188.117188 L 434.175781 313.507812 C 363.535156 354.394531 291.277344 396.191406 218.257812 438.46875 L 0.191406 313.152344 L 0.191406 62.421875 C 34.726562 42.511719 69.515625 22.472656 107.492188 0.5625 L 107.492188 249.039062 C 144.960938 270.699219 180.789062 291.417969 217.753906 312.773438" clip-rule="nonzero"/></clipPath><clipPath id="24f0ccf68e"><rect x="0" width="435" y="0" height="439"/></clipPath><clipPath id="b6c3ff4629"><path d="M 290 129.5 L 506.617188 129.5 L 506.617188 379 L 290 379 Z M 290 129.5" clip-rule="nonzero"/></clipPath><clipPath id="ecdecc9423"><path d="M 290.398438 129.554688 C 362.78125 171.148438 432.992188 211.503906 506.566406 253.808594 C 433.421875 296.085938 363.289062 336.617188 290.398438 378.769531 Z M 290.398438 129.554688" clip-rule="nonzero"/></clipPath><clipPath id="285376a743"><path d="M 0.269531 0.511719 L 216.605469 0.511719 L 216.605469 249.945312 L 0.269531 249.945312 Z M 0.269531 0.511719" clip-rule="nonzero"/></clipPath><clipPath id="a98279dde8"><path d="M 0.398438 0.554688 C 72.78125 42.148438 142.992188 82.503906 216.566406 124.808594 C 143.421875 167.085938 73.289062 207.617188 0.398438 249.769531 Z M 0.398438 0.554688" clip-rule="nonzero"/></clipPath><clipPath id="6f989b35c2"><rect x="0" width="217" y="0" height="250"/></clipPath><clipPath id="8a689ff64b"><path d="M 591.082031 236.34375 L 924 236.34375 L 924 511.65625 L 591.082031 511.65625 Z M 591.082031 236.34375" clip-rule="nonzero"/></clipPath><clipPath id="96f6daa0a7"><path d="M 741.351562 511.65625 L 591.082031 236.34375 L 640.582031 236.34375 L 762.214844 465.804688 L 878.386719 236.34375 L 923.957031 236.34375 L 779.902344 511.65625 Z M 741.351562 511.65625" clip-rule="nonzero"/></clipPath><clipPath id="55da80b6ba"><path d="M 0.0820312 0.34375 L 333 0.34375 L 333 275.65625 L 0.0820312 275.65625 Z M 0.0820312 0.34375" clip-rule="nonzero"/></clipPath><clipPath id="dd3f2846a8"><path d="M 150.351562 275.65625 L 0.0820312 0.34375 L 49.582031 0.34375 L 171.214844 229.804688 L 287.386719 0.34375 L 332.957031 0.34375 L 188.902344 275.65625 Z M 150.351562 275.65625" clip-rule="nonzero"/></clipPath><clipPath id="4ba12df6c2"><rect x="0" width="333" y="0" height="276"/></clipPath><clipPath id="9a75b36c2b"><path d="M 1066.121094 473.890625 L 1333.367188 473.890625 L 1333.367188 511.640625 L 1066.121094 511.640625 Z M 1066.121094 473.890625" clip-rule="nonzero"/></clipPath><clipPath id="5373d94f37"><path d="M 0.121094 0.890625 L 267.367188 0.890625 L 267.367188 38.640625 L 0.121094 38.640625 Z M 0.121094 0.890625" clip-rule="nonzero"/></clipPath><clipPath id="af68a9e97e"><rect x="0" width="268" y="0" height="39"/></clipPath><clipPath id="38915d93e0"><path d="M 1066.121094 236.34375 L 1333.328125 236.34375 L 1333.328125 273.332031 L 1066.121094 273.332031 Z M 1066.121094 236.34375" clip-rule="nonzero"/></clipPath><clipPath id="7d7b0439e6"><path d="M 0.121094 0.34375 L 267.328125 0.34375 L 267.328125 37.332031 L 0.121094 37.332031 Z M 0.121094 0.34375" clip-rule="nonzero"/></clipPath><clipPath id="0642159977"><rect x="0" width="268" y="0" height="38"/></clipPath><clipPath id="3d3ec8acde"><path d="M 1066.121094 349.90625 L 1333.328125 349.90625 L 1333.328125 386.371094 L 1066.121094 386.371094 Z M 1066.121094 349.90625" clip-rule="nonzero"/></clipPath><clipPath id="219ed1d9fb"><path d="M 0.121094 0.90625 L 267.328125 0.90625 L 267.328125 37.371094 L 0.121094 37.371094 Z M 0.121094 0.90625" clip-rule="nonzero"/></clipPath><clipPath id="f7596fd9c7"><rect x="0" width="268" y="0" height="38"/></clipPath><clipPath id="6f9e59b4b7"><path d="M 1442.4375 236.34375 L 1775.820312 236.34375 L 1775.820312 511.65625 L 1442.4375 511.65625 Z M 1442.4375 236.34375" clip-rule="nonzero"/></clipPath><clipPath id="2b5811d854"><path d="M 1592.710938 511.65625 L 1442.4375 236.34375 L 1491.898438 236.34375 L 1613.570312 465.804688 L 1729.703125 236.34375 L 1775.3125 236.34375 L 1631.261719 511.65625 Z M 1592.710938 511.65625" clip-rule="nonzero"/></clipPath><clipPath id="bf9e7767c0"><path d="M 0.4375 0.34375 L 333.359375 0.34375 L 333.359375 275.65625 L 0.4375 275.65625 Z M 0.4375 0.34375" clip-rule="nonzero"/></clipPath><clipPath id="a70d98cb78"><path d="M 150.710938 275.65625 L 0.4375 0.34375 L 49.898438 0.34375 L 171.570312 229.804688 L 287.703125 0.34375 L 333.3125 0.34375 L 189.261719 275.65625 Z M 150.710938 275.65625" clip-rule="nonzero"/></clipPath><clipPath id="10fb75e8e6"><rect x="0" width="334" y="0" height="276"/></clipPath><clipPath id="a4b34e390f"><path d="M 1917.460938 236.34375 L 1963.554688 236.34375 L 1963.554688 511.65625 L 1917.460938 511.65625 Z M 1917.460938 236.34375" clip-rule="nonzero"/></clipPath><clipPath id="8cca56dbd2"><path d="M 0.460938 0.34375 L 46.554688 0.34375 L 46.554688 275.65625 L 0.460938 275.65625 Z M 0.460938 0.34375" clip-rule="nonzero"/></clipPath><clipPath id="198c0ebfd5"><rect x="0" width="47" y="0" height="276"/></clipPath><clipPath id="88b319c6e8"><path d="M 2105.992188 236.34375 L 2458.734375 236.34375 L 2458.734375 511.65625 L 2105.992188 511.65625 Z M 2105.992188 236.34375" clip-rule="nonzero"/></clipPath><clipPath id="c2a0972959"><path d="M 2305.484375 236.34375 L 2256.261719 236.34375 L 2105.992188 511.65625 L 2151.320312 511.65625 L 2186.503906 443.941406 L 2299.023438 443.941406 L 2283.703125 408.761719 L 2205.757812 408.761719 L 2279.730469 267.875 L 2407.859375 511.65625 L 2458.402344 511.65625 Z M 2305.484375 236.34375" clip-rule="nonzero"/></clipPath><clipPath id="dfc5092b52"><path d="M 0.992188 0.34375 L 353.421875 0.34375 L 353.421875 275.65625 L 0.992188 275.65625 Z M 0.992188 0.34375" clip-rule="nonzero"/></clipPath><clipPath id="19f973c64f"><path d="M 200.484375 0.34375 L 151.261719 0.34375 L 0.992188 275.65625 L 46.320312 275.65625 L 81.503906 207.941406 L 194.023438 207.941406 L 178.703125 172.761719 L 100.757812 172.761719 L 174.730469 31.875 L 302.859375 275.65625 L 353.402344 275.65625 Z M 200.484375 0.34375" clip-rule="nonzero"/></clipPath><clipPath id="089f8cf231"><rect x="0" width="354" y="0" height="276"/></clipPath><clipPath id="8e256d690b"><path d="M 2600.8125 236.34375 L 2915.914062 236.34375 L 2915.914062 512 L 2600.8125 512 Z M 2600.8125 236.34375" clip-rule="nonzero"/></clipPath><clipPath id="89c02e69cd"><path d="M 2745.90625 273.851562 L 2646.902344 273.851562 L 2646.902344 473.386719 L 2745.90625 473.386719 C 2790.515625 473.386719 2822.046875 465.5625 2840.460938 449.957031 C 2858.871094 434.351562 2868.058594 408.4375 2868.058594 372.335938 C 2868.058594 337.433594 2858.671875 312.28125 2839.9375 296.957031 C 2821.203125 281.636719 2789.835938 273.851562 2745.90625 273.851562 M 2752.40625 236.34375 C 2777.757812 236.34375 2798.820312 238.03125 2815.589844 241.441406 C 2832.355469 244.847656 2846.515625 250.265625 2858.152344 257.726562 C 2875.882812 269.359375 2889.800781 285.324219 2899.949219 305.664062 C 2910.097656 326.003906 2915.195312 348.1875 2915.195312 372.335938 C 2915.195312 398.050781 2910.21875 421.195312 2900.230469 441.773438 C 2890.242188 462.355469 2876.242188 478.519531 2858.152344 490.355469 C 2846.878906 497.65625 2832.796875 503.03125 2815.949219 506.519531 C 2799.101562 510.011719 2777.921875 511.734375 2752.40625 511.734375 L 2600.8125 511.734375 L 2600.8125 236.34375 Z M 2752.40625 236.34375" clip-rule="nonzero"/></clipPath><clipPath id="822cd06d3a"><path d="M 0.8125 0.34375 L 315 0.34375 L 315 275.816406 L 0.8125 275.816406 Z M 0.8125 0.34375" clip-rule="nonzero"/></clipPath><clipPath id="da673ee8d9"><path d="M 145.90625 37.851562 L 46.902344 37.851562 L 46.902344 237.386719 L 145.90625 237.386719 C 190.515625 237.386719 222.046875 229.5625 240.460938 213.957031 C 258.871094 198.351562 268.058594 172.4375 268.058594 136.335938 C 268.058594 101.433594 258.671875 76.28125 239.9375 60.957031 C 221.203125 45.636719 189.835938 37.851562 145.90625 37.851562 M 152.40625 0.34375 C 177.757812 0.34375 198.820312 2.03125 215.589844 5.441406 C 232.355469 8.847656 246.515625 14.265625 258.152344 21.726562 C 275.882812 33.359375 289.800781 49.324219 299.949219 69.664062 C 310.097656 90.003906 315.195312 112.1875 315.195312 136.335938 C 315.195312 162.050781 310.21875 185.195312 300.230469 205.773438 C 290.242188 226.355469 276.242188 242.519531 258.152344 254.355469 C 246.878906 261.65625 232.796875 267.03125 215.949219 270.519531 C 199.101562 274.011719 177.921875 275.734375 152.40625 275.734375 L 0.8125 275.734375 L 0.8125 0.34375 Z M 152.40625 0.34375" clip-rule="nonzero"/></clipPath><clipPath id="cc54df0e57"><rect x="0" width="316" y="0" height="276"/></clipPath></defs><g clip-path="url(#23e262efc5)"><g clip-path="url(#33bfa443ad)"><g transform="matrix(1, 0, 0, 1, 71, 180)"><g clip-path="url(#24f0ccf68e)"><g clip-path="url(#6b7393dba6)"><g clip-path="url(#e43db19997)"><rect x="-751.79" width="4456.08" fill="#000000" height="1077.839968" y="-344.669995" fill-opacity="1"/></g></g></g></g></g></g><g clip-path="url(#b6c3ff4629)"><g clip-path="url(#ecdecc9423)"><g transform="matrix(1, 0, 0, 1, 290, 129)"><g clip-path="url(#6f989b35c2)"><g clip-path="url(#285376a743)"><g clip-path="url(#a98279dde8)"><rect x="-970.79" width="4456.08" fill="#000000" height="1077.839968" y="-293.669995" fill-opacity="1"/></g></g></g></g></g></g><g fill="#000000" fill-opacity="1"><g transform="translate(2937.827638, 240.465902)"><g><path d="M 7.625 -45.609375 C 7.625 -52.203125 8.773438 -58.320312 11.078125 -63.96875 C 13.378906 -69.625 16.570312 -74.578125 20.65625 -78.828125 C 24.75 -83.078125 29.46875 -86.382812 34.8125 -88.75 C 40.15625 -91.113281 45.875 -92.296875 51.96875 -92.296875 C 58.113281 -92.296875 63.859375 -91.113281 69.203125 -88.75 C 74.546875 -86.382812 79.253906 -83.078125 83.328125 -78.828125 C 87.398438 -74.578125 90.578125 -69.625 92.859375 -63.96875 C 95.148438 -58.320312 96.296875 -52.203125 96.296875 -45.609375 C 96.296875 -38.972656 95.148438 -32.804688 92.859375 -27.109375 C 90.578125 -21.421875 87.398438 -16.457031 83.328125 -12.21875 C 79.253906 -7.976562 74.546875 -4.671875 69.203125 -2.296875 C 63.859375 0.078125 58.113281 1.265625 51.96875 1.265625 C 45.875 1.265625 40.15625 0.078125 34.8125 -2.296875 C 29.46875 -4.671875 24.75 -7.976562 20.65625 -12.21875 C 16.570312 -16.457031 13.378906 -21.421875 11.078125 -27.109375 C 8.773438 -32.804688 7.625 -38.972656 7.625 -45.609375 Z M 15.265625 -45.609375 C 15.265625 -40.066406 16.21875 -34.925781 18.125 -30.1875 C 20.03125 -25.445312 22.671875 -21.304688 26.046875 -17.765625 C 29.421875 -14.222656 33.328125 -11.46875 37.765625 -9.5 C 42.203125 -7.53125 46.9375 -6.546875 51.96875 -6.546875 C 57.050781 -6.546875 61.8125 -7.53125 66.25 -9.5 C 70.6875 -11.46875 74.582031 -14.222656 77.9375 -17.765625 C 81.300781 -21.304688 83.925781 -25.445312 85.8125 -30.1875 C 87.707031 -34.925781 88.65625 -40.066406 88.65625 -45.609375 C 88.65625 -51.117188 87.707031 -56.226562 85.8125 -60.9375 C 83.925781 -65.644531 81.300781 -69.757812 77.9375 -73.28125 C 74.582031 -76.8125 70.6875 -79.5625 66.25 -81.53125 C 61.8125 -83.5 57.050781 -84.484375 51.96875 -84.484375 C 46.9375 -84.484375 42.203125 -83.5 37.765625 -81.53125 C 33.328125 -79.5625 29.421875 -76.8125 26.046875 -73.28125 C 22.671875 -69.757812 20.03125 -65.644531 18.125 -60.9375 C 16.21875 -56.226562 15.265625 -51.117188 15.265625 -45.609375 Z M 52.875 -40.875 L 43.0625 -40.875 L 43.0625 -19.796875 L 33.609375 -19.796875 L 33.609375 -72.859375 L 51.234375 -72.859375 C 57.410156 -72.859375 62.316406 -71.53125 65.953125 -68.875 C 69.585938 -66.226562 71.40625 -62.226562 71.40625 -56.875 C 71.40625 -51.71875 68.769531 -47.8125 63.5 -45.15625 C 66.375 -44 68.378906 -42.273438 69.515625 -39.984375 C 70.648438 -37.703125 71.21875 -35.09375 71.21875 -32.15625 L 71.21875 -28.703125 C 71.21875 -25.367188 71.582031 -22.707031 72.3125 -20.71875 L 72.3125 -19.796875 L 62.6875 -19.796875 C 62.226562 -20.796875 61.957031 -22.300781 61.875 -24.3125 C 61.800781 -26.332031 61.765625 -27.796875 61.765625 -28.703125 L 61.765625 -32.15625 C 61.765625 -35.0625 61.097656 -37.238281 59.765625 -38.6875 C 58.441406 -40.144531 56.144531 -40.875 52.875 -40.875 Z M 43.0625 -49.234375 L 52.5 -49.234375 C 55.050781 -49.234375 57.296875 -49.851562 59.234375 -51.09375 C 61.171875 -52.34375 62.140625 -54.144531 62.140625 -56.5 C 62.140625 -59.5 61.320312 -61.582031 59.6875 -62.75 C 58.050781 -63.914062 55.234375 -64.5 51.234375 -64.5 L 43.0625 -64.5 Z M 43.0625 -49.234375"/></g></g></g><g clip-path="url(#8a689ff64b)"><g clip-path="url(#96f6daa0a7)"><g transform="matrix(1, 0, 0, 1, 591, 236)"><g clip-path="url(#4ba12df6c2)"><g clip-path="url(#55da80b6ba)"><g clip-path="url(#dd3f2846a8)"><path fill="#000000" d="M 0.0820312 0.34375 L 333.464844 0.34375 L 333.464844 275.65625 L 0.0820312 275.65625 Z M 0.0820312 0.34375" fill-opacity="1" fill-rule="nonzero"/></g></g></g></g></g></g><g clip-path="url(#9a75b36c2b)"><g transform="matrix(1, 0, 0, 1, 1066, 473)"><g clip-path="url(#af68a9e97e)"><g clip-path="url(#5373d94f37)"><path fill="#000000" d="M 0.121094 0.890625 L 267.273438 0.890625 L 267.273438 38.65625 L 0.121094 38.65625 Z M 0.121094 0.890625" fill-opacity="1" fill-rule="nonzero"/></g></g></g></g><g clip-path="url(#38915d93e0)"><g transform="matrix(1, 0, 0, 1, 1066, 236)"><g clip-path="url(#0642159977)"><g clip-path="url(#7d7b0439e6)"><path fill="#000000" d="M 0.121094 0.34375 L 267.375 0.34375 L 267.375 37.328125 L 0.121094 37.328125 Z M 0.121094 0.34375" fill-opacity="1" fill-rule="nonzero"/></g></g></g></g><g clip-path="url(#3d3ec8acde)"><g transform="matrix(1, 0, 0, 1, 1066, 349)"><g clip-path="url(#f7596fd9c7)"><g clip-path="url(#219ed1d9fb)"><path fill="#000000" d="M 0.121094 0.90625 L 267.367188 0.90625 L 267.367188 37.375 L 0.121094 37.375 Z M 0.121094 0.90625" fill-opacity="1" fill-rule="nonzero"/></g></g></g></g><g clip-path="url(#6f9e59b4b7)"><g clip-path="url(#2b5811d854)"><g transform="matrix(1, 0, 0, 1, 1442, 236)"><g clip-path="url(#10fb75e8e6)"><g clip-path="url(#bf9e7767c0)"><g clip-path="url(#a70d98cb78)"><path fill="#000000" d="M 0.4375 0.34375 L 333.820312 0.34375 L 333.820312 275.65625 L 0.4375 275.65625 Z M 0.4375 0.34375" fill-opacity="1" fill-rule="nonzero"/></g></g></g></g></g></g><g clip-path="url(#a4b34e390f)"><g transform="matrix(1, 0, 0, 1, 1917, 236)"><g clip-path="url(#198c0ebfd5)"><g clip-path="url(#8cca56dbd2)"><path fill="#000000" d="M 0.460938 0.34375 L 46.570312 0.34375 L 46.570312 275.734375 L 0.460938 275.734375 Z M 0.460938 0.34375" fill-opacity="1" fill-rule="nonzero"/></g></g></g></g><g clip-path="url(#88b319c6e8)"><g clip-path="url(#c2a0972959)"><g transform="matrix(1, 0, 0, 1, 2105, 236)"><g clip-path="url(#089f8cf231)"><g clip-path="url(#dfc5092b52)"><g clip-path="url(#19f973c64f)"><path fill="#000000" d="M 0.992188 0.34375 L 353.734375 0.34375 L 353.734375 275.65625 L 0.992188 275.65625 Z M 0.992188 0.34375" fill-opacity="1" fill-rule="nonzero"/></g></g></g></g></g></g><g clip-path="url(#8e256d690b)"><g clip-path="url(#89c02e69cd)"><g transform="matrix(1, 0, 0, 1, 2600, 236)"><g clip-path="url(#cc54df0e57)"><g clip-path="url(#822cd06d3a)"><g clip-path="url(#da673ee8d9)"><path fill="#000000" d="M 0.8125 0.34375 L 314.835938 0.34375 L 314.835938 275.65625 L 0.8125 275.65625 Z M 0.8125 0.34375" fill-opacity="1" fill-rule="nonzero"/></g></g></g></g></g></g></svg>